<svg xmlns="http://www.w3.org/2000/svg" viewBox="0 0 500 500" width="100%" height="100%">
    <!-- 深灰色正六边形底板 -->
    <polygon points="250,15 458,135 458,365 250,485 42,365 42,135" fill="#333333" />

    <!-- 中间的 "M" 标志形状 -->
    <path d="M 125,395
             C 120,250 135,120 160,75
             L 175,85
             L 225,145
             Q 250,160 275,145
             L 325,85
             L 340,75
             C 365,120 380,250 375,395
             L 355,420
             C 365,300 355,180 345,160
             L 280,185
             L 250,195
             L 220,185
             L 155,160
             C 145,180 135,300 145,405
             Z"
          fill="#ffffff" />
</svg>